<svg xmlns="http://www.w3.org/2000/svg" viewBox="0 0 64 64" fill="none" shape-rendering="crispEdges">
  <title>万象</title>
  <rect width="64" height="64" rx="14" fill="#EEF2FF"/>
  <rect x="36" y="24" width="2" height="2" fill="#FFFFFF"/>
  <rect x="30" y="25" width="3" height="3" fill="#FFFFFF"/>
  <rect x="38" y="25" width="1" height="13" fill="#FFFFFF"/>
  <rect x="37" y="26" width="1" height="13" fill="#FFFFFF"/>
  <rect x="36" y="27" width="1" height="12" fill="#FFFFFF"/>
  <rect x="39" y="27" width="1" height="9" fill="#FFFFFF"/>
  <rect x="35" y="30" width="1" height="10" fill="#FFFFFF"/>
  <rect x="40" y="30" width="1" height="3" fill="#FFFFFF"/>
  <rect x="32" y="31" width="3" height="4" fill="#FFFFFF"/>
  <rect x="28" y="32" width="4" height="3" fill="#FFFFFF"/>
  <rect x="27" y="33" width="1" height="7" fill="#FFFFFF"/>
  <rect x="28" y="35" width="2" height="5" fill="#FFFFFF"/>
  <rect x="33" y="35" width="2" height="5" fill="#FFFFFF"/>
  <rect x="26" y="36" width="1" height="1" fill="#FFFFFF"/>
  <rect x="30" y="38" width="3" height="3" fill="#FFFFFF"/>
  <rect x="22" y="18" width="1" height="1" fill="#2A4BFF"/>
  <rect x="20" y="19" width="1" height="1" fill="#2A4BFF"/>
  <rect x="28" y="19" width="1" height="1" fill="#2A4BFF"/>
  <rect x="37" y="20" width="1" height="1" fill="#2A4BFF"/>
  <rect x="20" y="21" width="1" height="1" fill="#2A4BFF"/>
  <rect x="30" y="21" width="3" height="4" fill="#2A4BFF"/>
  <rect x="39" y="21" width="1" height="1" fill="#2A4BFF"/>
  <rect x="27" y="22" width="3" height="10" fill="#2A4BFF"/>
  <rect x="33" y="22" width="3" height="8" fill="#2A4BFF"/>
  <rect x="42" y="22" width="1" height="1" fill="#2A4BFF"/>
  <rect x="25" y="23" width="2" height="13" fill="#2A4BFF"/>
  <rect x="36" y="23" width="2" height="1" fill="#2A4BFF"/>
  <rect x="24" y="24" width="1" height="15" fill="#2A4BFF"/>
  <rect x="38" y="24" width="1" height="1" fill="#2A4BFF"/>
  <rect x="45" y="24" width="1" height="1" fill="#2A4BFF"/>
  <rect x="23" y="25" width="1" height="13" fill="#2A4BFF"/>
  <rect x="39" y="25" width="1" height="2" fill="#2A4BFF"/>
  <rect x="19" y="26" width="1" height="1" fill="#2A4BFF"/>
  <rect x="36" y="26" width="1" height="1" fill="#2A4BFF"/>
  <rect x="22" y="27" width="1" height="9" fill="#2A4BFF"/>
  <rect x="40" y="27" width="1" height="3" fill="#2A4BFF"/>
  <rect x="19" y="28" width="1" height="1" fill="#2A4BFF"/>
  <rect x="30" y="28" width="3" height="3" fill="#2A4BFF"/>
  <rect x="43" y="29" width="1" height="1" fill="#2A4BFF"/>
  <rect x="21" y="30" width="1" height="3" fill="#2A4BFF"/>
  <rect x="33" y="30" width="2" height="1" fill="#2A4BFF"/>
  <rect x="41" y="30" width="1" height="3" fill="#2A4BFF"/>
  <rect x="30" y="31" width="1" height="1" fill="#2A4BFF"/>
  <rect x="44" y="31" width="1" height="1" fill="#2A4BFF"/>
  <rect x="27" y="32" width="1" height="1" fill="#2A4BFF"/>
  <rect x="45" y="32" width="1" height="1" fill="#2A4BFF"/>
  <rect x="40" y="33" width="1" height="3" fill="#2A4BFF"/>
  <rect x="45" y="34" width="1" height="1" fill="#2A4BFF"/>
  <rect x="30" y="35" width="3" height="3" fill="#2A4BFF"/>
  <rect x="25" y="36" width="1" height="4" fill="#2A4BFF"/>
  <rect x="39" y="36" width="1" height="2" fill="#2A4BFF"/>
  <rect x="26" y="37" width="1" height="3" fill="#2A4BFF"/>
  <rect x="38" y="38" width="1" height="1" fill="#2A4BFF"/>
  <rect x="45" y="38" width="1" height="1" fill="#2A4BFF"/>
  <rect x="21" y="39" width="1" height="1" fill="#2A4BFF"/>
  <rect x="36" y="39" width="2" height="1" fill="#2A4BFF"/>
  <rect x="27" y="40" width="3" height="1" fill="#2A4BFF"/>
  <rect x="33" y="40" width="3" height="1" fill="#2A4BFF"/>
  <rect x="40" y="40" width="1" height="1" fill="#2A4BFF"/>
  <rect x="44" y="40" width="1" height="1" fill="#2A4BFF"/>
  <rect x="30" y="41" width="3" height="1" fill="#2A4BFF"/>
  <rect x="21" y="43" width="1" height="1" fill="#2A4BFF"/>
  <rect x="29" y="43" width="1" height="1" fill="#2A4BFF"/>
  <rect x="39" y="43" width="1" height="1" fill="#2A4BFF"/>
  <rect x="26" y="44" width="1" height="1" fill="#2A4BFF"/>
  <rect x="37" y="44" width="1" height="1" fill="#2A4BFF"/>
  <rect x="31" y="31" width="1" height="1" fill="#151B4A"/>
</svg>
